<svg xmlns="http://www.w3.org/2000/svg" viewBox="0 0 32 32" fill="none">
  <!-- Background rounded square -->
  <rect width="32" height="32" rx="8" fill="#0a0a0a"/>
  <!-- Rocket body -->
  <path d="M16 4C16 4 10 10 10 18C10 21.31 12.69 24 16 24C19.31 24 22 21.31 22 18C22 10 16 4 16 4Z" fill="#f59e0b"/>
  <!-- Rocket window -->
  <circle cx="16" cy="17" r="2.5" fill="#0a0a0a"/>
  <circle cx="16" cy="17" r="1.5" fill="#fcd34d"/>
  <!-- Left flame -->
  <path d="M12 24C12 24 11 27 13 28C13 26 14 25 14 25L12 24Z" fill="#f59e0b" opacity="0.7"/>
  <!-- Right flame -->
  <path d="M20 24C20 24 21 27 19 28C19 26 18 25 18 25L20 24Z" fill="#f59e0b" opacity="0.7"/>
  <!-- Center flame -->
  <path d="M14 24L16 29L18 24C17.5 25 16 25.5 14 24Z" fill="#fcd34d"/>
  <!-- Left fin -->
  <path d="M10 18L7 22L11 21L10 18Z" fill="#d97706"/>
  <!-- Right fin -->
  <path d="M22 18L25 22L21 21L22 18Z" fill="#d97706"/>
</svg>
